<svg width="127" height="103" viewBox="0 0 127 103" fill="none" xmlns="http://www.w3.org/2000/svg">
<path d="M31.46 19.0786C32.7809 19.0782 34.0985 19.2117 35.3926 19.4769C37.8901 19.9913 40.2613 20.9942 42.37 22.4279C45.2914 24.408 47.6255 27.1385 49.127 30.3324C50.6285 33.5263 51.2419 37.0657 50.9027 40.5786C50.5636 44.0915 49.2844 47.4482 47.1997 50.2959C45.1149 53.1435 42.3016 55.3771 39.0553 56.7617C37.8752 57.2631 36.6482 57.646 35.3924 57.9046C32.6692 58.4568 29.8596 58.4224 27.1508 57.8036C24.4419 57.1849 21.8961 55.996 19.6827 54.3162C17.4694 52.6364 15.6394 50.5043 14.3146 48.0618C12.9899 45.6193 12.2008 42.9226 11.9999 40.1513C14.1352 40.651 16.3534 40.6832 18.5023 40.2455C20.4306 39.8506 22.2623 39.0798 23.8929 37.9772C26.3167 36.3409 28.2139 34.0368 29.3547 31.3441C29.7401 30.4321 30.0344 29.4842 30.233 28.5142C30.6565 26.436 30.6408 24.2921 30.187 22.2203C29.9588 21.1843 29.6212 20.1754 29.18 19.2107C29.9368 19.1226 30.6981 19.0785 31.46 19.0786Z" fill="#713FFD"/>
<g filter="url(#filter0_f_321_249)">
<path d="M44.6645 25.1412C40.2842 21.1972 34.546 20.4292 31.8477 23.4259C29.1495 26.4226 30.5131 32.0492 34.8933 35.9932C39.2736 39.9372 45.0118 40.7051 47.71 37.7084C50.4083 34.7117 49.0447 29.0852 44.6645 25.1412Z" fill="#A586FC"/>
</g>
<g filter="url(#filter1_d_321_249)">
<path d="M70.0399 70.3633H33.9661C30.4666 70.3606 27.1039 69.0043 24.5818 66.5784C22.0597 64.1524 20.5738 60.8449 20.4352 57.3482C20.2966 53.8515 21.516 50.4367 23.8382 47.8188C26.1603 45.2008 29.4052 43.5826 32.8935 43.303C33.3909 39.7904 34.9771 36.5222 37.4288 33.9581C39.8806 31.394 43.0745 29.6631 46.5613 29.0089C50.048 28.3548 53.6522 28.8102 56.8666 30.3112C60.0811 31.8121 62.744 34.2831 64.4809 37.3765C67.6665 36.2737 71.1085 36.1449 74.3676 37.0064C77.6268 37.8679 80.5555 39.6807 82.7801 42.2135C85.0048 44.7464 86.4245 47.8845 86.8583 51.2276C87.292 54.5707 86.7202 57.9672 85.2156 60.9839C84.3326 63.7095 82.6089 66.0852 80.2919 67.7703C77.9748 69.4554 75.1836 70.3631 72.3186 70.3633H70.0399Z" fill="url(#paint0_linear_321_249)"/>
<path d="M72.3187 70.1748C73.7734 70.1748 75.2036 69.9426 76.5697 69.4845C77.8908 69.0415 79.131 68.395 80.256 67.5631C81.368 66.7407 82.3428 65.7556 83.1533 64.6352C83.9739 63.5007 84.6075 62.2528 85.0364 60.926L85.0408 60.9124L85.0472 60.8996C85.6176 59.7599 86.0569 58.5543 86.3527 57.3162C86.6572 56.0423 86.8115 54.7258 86.8115 53.4035C86.8115 52.2655 86.6969 51.1282 86.4708 50.0233C86.2504 48.9466 85.9217 47.8875 85.4936 46.8754C85.0733 45.8817 84.553 44.9232 83.9473 44.0266C83.3473 43.1385 82.6583 42.3034 81.8993 41.5444C81.1403 40.7854 80.3051 40.0963 79.417 39.4963C78.5204 38.8906 77.562 38.3704 76.5682 37.95C75.5562 37.522 74.4971 37.1932 73.4203 36.9729C72.3154 36.7468 71.1782 36.6321 70.0401 36.6321C68.1558 36.6321 66.3062 36.9422 64.5427 37.5538L64.3939 37.6054L64.3167 37.4682C62.8816 34.9163 60.794 32.7732 58.2798 31.2706C57.0083 30.5107 55.6422 29.9235 54.2195 29.5253C52.7519 29.1144 51.2274 28.9061 49.6884 28.9061C47.6184 28.9061 45.5978 29.2786 43.6826 30.0134C41.8325 30.7232 40.1353 31.7485 38.6381 33.0609C37.1496 34.3657 35.9143 35.9052 34.9665 37.6368C33.9955 39.4108 33.3609 41.3258 33.0802 43.3285L33.0592 43.4784L32.9083 43.4902C31.2202 43.6223 29.5961 44.0668 28.081 44.8112C26.6088 45.5346 25.2942 46.5129 24.1737 47.7191C21.8712 50.1976 20.6032 53.4268 20.6032 56.8119C20.6032 58.616 20.9565 60.366 21.6533 62.0133C21.9882 62.805 22.4027 63.5687 22.8853 64.2831C23.3634 64.9907 23.9124 65.6562 24.5172 66.2609C25.1219 66.8657 25.7873 67.4147 26.495 67.8928C27.2094 68.3754 27.973 68.7899 28.7648 69.1248C30.4121 69.8216 32.1621 70.1748 33.9662 70.1748H70.0401H72.3187ZM72.3187 70.3633H70.0401H33.9662C26.482 70.3633 20.4148 64.2961 20.4148 56.8119C20.4148 49.6886 25.9106 43.8489 32.8936 43.3023C34.0487 35.0601 41.1278 28.7177 49.6884 28.7177C56.0393 28.7177 61.5748 32.2082 64.481 37.3758C66.2226 36.7718 68.093 36.4437 70.0401 36.4437C79.4067 36.4437 87 44.0369 87 53.4035C87 56.1282 86.3575 58.7027 85.2157 60.984C83.4562 66.4266 78.3471 70.3633 72.3187 70.3633Z" fill="white" fill-opacity="0.5"/>
</g>
<defs>
<filter id="filter0_f_321_249" x="10.4624" y="1.5979" width="58.6331" height="57.9385" filterUnits="userSpaceOnUse" color-interpolation-filters="sRGB">
<feFlood flood-opacity="0" result="BackgroundImageFix"/>
<feBlend mode="normal" in="SourceGraphic" in2="BackgroundImageFix" result="shape"/>
<feGaussianBlur stdDeviation="10" result="effect1_foregroundBlur_321_249"/>
</filter>
<filter id="filter1_d_321_249" x="0.414795" y="0.717651" width="126.585" height="101.646" filterUnits="userSpaceOnUse" color-interpolation-filters="sRGB">
<feFlood flood-opacity="0" result="BackgroundImageFix"/>
<feColorMatrix in="SourceAlpha" type="matrix" values="0 0 0 0 0 0 0 0 0 0 0 0 0 0 0 0 0 0 127 0" result="hardAlpha"/>
<feOffset dx="10" dy="2"/>
<feGaussianBlur stdDeviation="15"/>
<feColorMatrix type="matrix" values="0 0 0 0 0.501961 0 0 0 0 0.501961 0 0 0 0 0.501961 0 0 0 0.302 0"/>
<feBlend mode="normal" in2="BackgroundImageFix" result="effect1_dropShadow_321_249"/>
<feBlend mode="normal" in="SourceGraphic" in2="effect1_dropShadow_321_249" result="shape"/>
</filter>
<linearGradient id="paint0_linear_321_249" x1="53.7119" y1="28.718" x2="73.0542" y2="75.4825" gradientUnits="userSpaceOnUse">
<stop stop-color="white" stop-opacity="0.604"/>
<stop offset="1" stop-color="white" stop-opacity="0.2"/>
</linearGradient>
</defs>
</svg>
